<svg data-v-423bf9ae="" xmlns="http://www.w3.org/2000/svg" viewBox="0 0 545 90" class="iconLeftSlogan"><!----><!----><!----><g data-v-423bf9ae="" id="edef13be-5fea-4295-ac32-39fdd249aa39" fill="black" transform="matrix(5.928853821986509,0,0,5.928853821986509,119.46833532334514,-24.4268775449181)"><path d="M6.62 11.49L6.62 11.49L6.62 11.49Q6.62 12.66 5.51 13.44L5.51 13.44L5.51 13.44Q4.40 14.22 2.93 14.22L2.93 14.22L2.93 14.22Q1.78 14.22 0.99 13.73L0.99 13.73L0.99 13.73Q0.20 13.24 0.20 12.80L0.20 12.80L0.20 12.80Q0.42 12.25 1.05 11.62L1.05 11.62L1.05 11.62Q1.68 10.99 2.21 10.96L2.21 10.96L2.21 10.96Q2.56 11.12 2.86 11.73L2.86 11.73L2.86 11.73Q3.16 12.33 3.35 13.13L3.35 13.13L3.35 13.13Q4.10 13.10 4.10 12.28L4.10 12.28L4.10 12.28Q4.10 11.73 3.69 10.94L3.69 10.94L3.69 10.94Q3.28 10.15 2.79 9.46L2.79 9.46L2.79 9.46Q2.30 8.78 1.88 7.94L1.88 7.94L1.88 7.94Q1.47 7.10 1.47 6.47L1.47 6.47L1.47 6.47Q1.47 5.43 2.42 4.77L2.42 4.77L2.42 4.77Q3.37 4.12 4.54 4.12L4.54 4.12L4.54 4.12Q5.71 4.12 6.36 4.62L6.36 4.62L6.36 4.62Q7.01 5.12 7.01 5.78L7.01 5.78L7.01 5.78Q7.01 6.33 6.79 6.66L6.79 6.66L6.79 6.66Q6.57 6.99 6.43 7.16L6.43 7.16L6.43 7.16Q6.30 7.34 6.08 7.53L6.08 7.53L6.08 7.53Q5.66 7.90 5.43 8.06L5.43 8.06L5.22 8.22L5.22 8.22Q6.05 9.24 6.47 10.60L6.47 10.60L6.47 10.60Q6.62 11.09 6.62 11.49ZM5.89 5.88L5.89 5.88L5.89 5.88Q5.89 5.22 5.05 5.22L5.05 5.22L5.05 5.22Q4.56 5.22 4.26 5.43L4.26 5.43L4.26 5.43Q3.96 5.64 3.96 5.96L3.96 5.96L3.96 5.96Q3.96 6.27 4.22 6.72L4.22 6.72L4.22 6.72Q4.48 7.17 4.63 7.35L4.63 7.35L4.63 7.35Q4.97 7.18 5.43 6.73L5.43 6.73L5.43 6.73Q5.89 6.29 5.89 5.88ZM8.55 14.15L8.55 14.15L8.23 14.15L8.23 14.15Q8.23 12.99 8.89 9.91L8.89 9.91L8.89 9.91Q9.55 6.83 9.63 6.22L9.63 6.22L9.63 6.22Q9.70 5.61 9.72 5.31L9.72 5.31L9.72 5.31Q8.40 5.33 7.62 5.71L7.62 5.71L7.62 5.71Q7.21 5.25 7.11 4.35L7.11 4.35L7.11 4.35Q7.80 4.12 9.46 4.12L9.46 4.12L13.87 4.26L13.87 4.26Q14.20 4.26 14.90 4.23L14.90 4.23L14.90 4.23Q14.95 4.68 14.95 4.98L14.95 4.98L14.95 4.98Q14.95 5.64 14.13 5.64L14.13 5.64L14.13 5.64Q13.87 5.64 13.34 5.56L13.34 5.56L13.34 5.56Q12.80 5.47 12.39 5.46L12.39 5.46L12.39 5.46Q12.35 5.91 11.67 9.10L11.67 9.10L11.67 9.10Q10.99 12.29 10.99 13.79L10.99 13.79L10.99 13.79Q10.37 14.15 8.55 14.15ZM17.39 13.79L17.39 13.79L17.39 13.79Q16.56 14.15 15.37 14.15L15.37 14.15L15.37 14.15Q14.97 14.15 14.64 14.08L14.64 14.08L14.64 14.08Q14.64 13.16 15.44 9.92L15.44 9.92L15.44 9.92Q16.23 6.68 16.23 5.84L16.23 5.84L16.23 5.84Q16.23 5.50 15.72 4.94L15.72 4.94L15.57 4.76L15.61 4.45L15.61 4.45Q17.51 4.12 19.84 4.12L19.84 4.12L19.84 4.12Q21.24 4.12 22.05 4.66L22.05 4.66L22.05 4.66Q22.86 5.19 22.86 6.22L22.86 6.22L22.86 6.22Q22.86 7.25 22.30 8.10L22.30 8.10L22.30 8.10Q21.74 8.95 20.71 9.42L20.71 9.42L20.71 9.42Q21.17 10.99 21.59 11.87L21.59 11.87L21.59 11.87Q22.01 12.75 22.27 12.75L22.27 12.75L22.27 12.75Q22.50 12.75 22.97 12.59L22.97 12.59L23.14 12.53L23.48 13.29L23.48 13.29Q22.25 14.22 20.88 14.22L20.88 14.22L20.88 14.22Q19.52 14.22 19.10 12.85L19.10 12.85L19.10 12.85Q18.73 11.65 18.51 9.87L18.51 9.87L18.02 9.87L18.02 9.87Q17.39 12.81 17.39 13.79ZM18.59 8.65L18.59 8.65L18.59 8.65Q19.04 8.65 19.37 8.37L19.37 8.37L19.37 8.37Q19.70 8.09 19.87 7.64L19.87 7.64L19.87 7.64Q20.17 6.76 20.17 5.94L20.17 5.94L20.17 5.94Q20.17 5.11 19.43 5.11L19.43 5.11L19.43 5.11Q19.21 5.11 18.98 5.15L18.98 5.15L18.98 5.15Q18.97 5.59 18.30 8.62L18.30 8.62L18.30 8.62Q18.40 8.65 18.59 8.65ZM26.96 14.24L26.96 14.24L26.96 14.24Q25.20 14.24 24.25 13.10L24.25 13.10L24.25 13.10Q23.73 12.49 23.73 11.61L23.73 11.61L23.73 11.61Q23.73 10.42 24.57 9.65L24.57 9.65L24.57 9.65Q25.41 8.89 26.56 8.76L26.56 8.76L26.56 8.76Q24.79 8.29 24.79 6.73L24.79 6.73L24.79 6.73Q24.79 5.53 25.83 4.82L25.83 4.82L25.83 4.82Q26.87 4.12 28.19 4.12L28.19 4.12L28.19 4.12Q29.51 4.12 30.39 4.66L30.39 4.66L30.39 4.66Q31.28 5.21 31.28 6.10L31.28 6.10L31.28 6.10Q31.28 6.62 31.00 7.08L31.00 7.08L30.90 7.24L30.90 7.24Q30.32 7.24 29.67 7.06L29.67 7.06L29.67 7.06Q29.01 6.89 28.67 6.61L28.67 6.61L28.81 5.18L28.81 5.18Q28.60 5.08 28.39 5.08L28.39 5.08L28.39 5.08Q27.96 5.08 27.73 5.54L27.73 5.54L27.73 5.54Q27.50 6.01 27.50 6.62L27.50 6.62L27.50 6.62Q27.50 7.24 27.63 7.60L27.63 7.60L27.63 7.60Q27.76 7.97 28.05 8.16L28.05 8.16L28.05 8.16Q28.34 8.34 28.55 8.42L28.55 8.42L28.55 8.42Q28.77 8.50 29.16 8.58L29.16 8.58L29.05 9.39L29.05 9.39Q28.08 9.39 27.27 9.94L27.27 9.94L27.27 9.94Q26.46 10.49 26.46 11.41L26.46 11.41L26.46 11.41Q26.46 12.07 26.88 12.37L26.88 12.37L26.88 12.37Q27.30 12.67 27.88 12.67L27.88 12.67L27.88 12.67Q28.46 12.67 29.11 12.38L29.11 12.38L29.11 12.38Q29.75 12.08 30.21 11.63L30.21 11.63L30.84 12.26L30.84 12.26Q30.24 13.09 29.18 13.66L29.18 13.66L29.18 13.66Q28.11 14.24 26.96 14.24ZM32.14 13.87L32.14 13.87L32.14 13.87Q32.05 14.18 31.49 14.18L31.49 14.18L31.49 14.18Q30.94 14.18 30.39 13.80L30.39 13.80L30.39 13.80Q30.83 12.63 32.12 9.89L32.12 9.89L32.12 9.89Q33.42 7.15 33.85 5.81L33.85 5.81L33.85 5.81Q33.89 5.64 33.89 5.52L33.89 5.52L33.89 5.52Q33.89 5.40 33.80 5.19L33.80 5.19L33.80 5.19Q33.70 4.98 33.59 4.86L33.59 4.86L33.49 4.73L33.54 4.45L33.54 4.45Q34.79 4.12 36.50 4.12L36.50 4.12L37.58 4.17L37.58 4.17Q37.72 4.30 37.86 4.83L37.86 4.83L37.86 4.83Q38.00 5.36 38.04 6.43L38.04 6.43L38.04 6.43Q38.08 7.49 38.09 10.42L38.09 10.42L38.09 10.42Q38.11 12.67 38.65 12.67L38.65 12.67L38.65 12.67Q38.79 12.67 39.26 12.53L39.26 12.53L39.40 12.49L39.69 13.29L39.69 13.29Q39.12 13.72 38.35 13.97L38.35 13.97L38.35 13.97Q37.58 14.22 36.96 14.22L36.96 14.22L36.96 14.22Q36.06 14.22 35.73 13.67L35.73 13.67L35.73 13.67Q35.41 13.12 35.41 12.24L35.41 12.24L35.41 12.24Q35.41 11.37 35.42 11.03L35.42 11.03L35.42 11.03Q35.15 10.98 34.38 10.98L34.38 10.98L34.38 10.98Q33.61 10.98 33.05 11.13L33.05 11.13L33.05 11.13Q32.54 12.52 32.14 13.87ZM33.56 9.86L35.48 9.86L35.48 9.86Q35.55 8.64 35.55 7.41L35.55 7.41L35.55 7.41Q35.55 6.17 35.41 5.61L35.41 5.61L35.41 5.61Q35.27 5.61 35.21 5.64L35.21 5.64L35.21 5.64Q34.90 6.58 33.56 9.86L33.56 9.86ZM40.11 14.14L40.11 14.14L39.94 14.14L39.94 14.14Q39.94 13.33 40.73 9.84L40.73 9.84L40.73 9.84Q41.51 6.36 41.51 5.99L41.51 5.99L41.51 5.99Q41.51 5.40 41.08 4.87L41.08 4.87L40.94 4.69L40.98 4.41L40.98 4.41Q41.80 4.13 44.00 4.13L44.00 4.13L44.00 4.13Q44.23 4.63 44.24 5.32L44.24 5.32L44.24 5.32Q45.88 4.12 47.04 4.12L47.04 4.12L47.04 4.12Q48.37 4.12 48.62 5.26L48.62 5.26L48.62 5.26Q50.20 4.12 51.38 4.12L51.38 4.12L51.38 4.12Q52.18 4.12 52.68 4.56L52.68 4.56L52.68 4.56Q53.19 5.00 53.19 5.83L53.19 5.83L53.19 5.83Q53.19 6.66 52.58 9.00L52.58 9.00L52.58 9.00Q51.97 11.33 51.97 12.31L51.97 12.31L51.97 12.31Q51.97 12.67 52.12 12.67L52.12 12.67L52.12 12.67Q52.42 12.67 52.84 12.50L52.84 12.50L53.13 13.30L53.13 13.30Q51.83 14.22 50.55 14.22L50.55 14.22L50.55 14.22Q49.95 14.22 49.59 13.86L49.59 13.86L49.59 13.86Q49.22 13.50 49.22 12.79L49.22 12.79L49.22 12.79Q49.22 12.08 49.80 9.71L49.80 9.71L49.80 9.71Q50.39 7.34 50.39 6.82L50.39 6.82L50.39 6.82Q50.39 6.30 50.26 6.13L50.26 6.13L50.26 6.13Q50.13 5.95 49.77 5.95L49.77 5.95L49.77 5.95Q49.41 5.95 48.62 6.48L48.62 6.48L48.62 6.48Q48.52 7.13 48.19 8.57L48.19 8.57L48.19 8.57Q47.31 12.25 47.31 13.79L47.31 13.79L47.31 13.79Q46.62 14.15 44.94 14.15L44.94 14.15L44.56 14.15L44.56 14.15Q44.56 12.87 45.22 10.12L45.22 10.12L45.22 10.12Q45.88 7.38 45.88 6.83L45.88 6.83L45.88 6.83Q45.88 6.29 45.76 6.12L45.76 6.12L45.76 6.12Q45.64 5.95 45.27 5.95L45.27 5.95L45.27 5.95Q44.90 5.95 44.10 6.50L44.10 6.50L44.10 6.50Q43.97 7.20 43.58 8.82L43.58 8.82L43.58 8.82Q42.67 12.61 42.67 13.78L42.67 13.78L42.67 13.78Q42.06 14.14 40.11 14.14ZM58.45 14.22L58.45 14.22L58.45 14.22Q57.33 14.22 56.21 13.83L56.21 13.83L56.21 13.83Q55.40 14.14 54.33 14.14L54.33 14.14L54.33 14.14Q54.10 14.14 53.90 14.11L53.90 14.11L53.90 14.11Q53.90 13.27 54.67 9.97L54.67 9.97L54.67 9.97Q55.44 6.66 55.44 6.23L55.44 6.23L55.44 6.23Q55.44 5.80 55.28 5.46L55.28 5.46L55.28 5.46Q55.12 5.12 54.95 4.96L54.95 4.96L54.80 4.80L54.85 4.45L54.85 4.45Q55.20 4.38 56.47 4.25L56.47 4.25L56.47 4.25Q57.74 4.12 58.62 4.12L58.62 4.12L58.62 4.12Q62.03 4.12 62.03 6.31L62.03 6.31L62.03 6.31Q62.03 7.34 61.34 7.98L61.34 7.98L61.34 7.98Q60.65 8.62 59.63 8.85L59.63 8.85L59.63 8.85Q60.59 8.96 61.25 9.54L61.25 9.54L61.25 9.54Q61.91 10.12 61.91 11.19L61.91 11.19L61.91 11.19Q61.91 12.50 60.93 13.36L60.93 13.36L60.93 13.36Q59.95 14.22 58.45 14.22ZM57.97 9.32L57.97 9.32L57.97 9.32Q57.72 9.32 57.41 9.37L57.41 9.37L57.41 9.37Q56.87 11.76 56.71 12.84L56.71 12.84L56.71 12.84Q57.02 13.02 57.55 13.02L57.55 13.02L57.55 13.02Q58.37 13.02 58.77 12.35L58.77 12.35L58.77 12.35Q59.18 11.68 59.18 10.83L59.18 10.83L59.18 10.83Q59.18 9.98 58.88 9.65L58.88 9.65L58.88 9.65Q58.58 9.32 57.97 9.32ZM57.67 8.30L57.79 8.30L57.79 8.30Q58.41 8.30 58.76 7.84L58.76 7.84L58.76 7.84Q59.39 7.04 59.39 6.07L59.39 6.07L59.39 6.07Q59.39 5.10 58.72 5.10L58.72 5.10L58.25 5.15L58.25 5.15Q58.24 5.70 57.67 8.30L57.67 8.30ZM66.91 14.22L66.91 14.22L66.91 14.22Q65.97 14.22 65.14 13.86L65.14 13.86L65.14 13.86Q64.43 14.13 63.61 14.13L63.61 14.13L63.61 14.13Q62.79 14.13 62.73 14.11L62.73 14.11L62.73 14.11Q62.73 13.15 63.50 9.93L63.50 9.93L63.50 9.93Q64.27 6.72 64.27 6.28L64.27 6.28L64.27 6.28Q64.27 5.84 64.11 5.49L64.11 5.49L64.11 5.49Q63.95 5.14 63.78 4.96L63.78 4.96L63.63 4.79L63.67 4.47L63.67 4.47Q64.08 4.37 65.30 4.24L65.30 4.24L65.30 4.24Q66.53 4.12 67.42 4.12L67.42 4.12L67.42 4.12Q69.58 4.12 70.62 5.01L70.62 5.01L70.62 5.01Q71.67 5.89 71.67 7.85L71.67 7.85L71.67 7.85Q71.67 9.38 71.11 10.82L71.11 10.82L71.11 10.82Q70.56 12.25 69.44 13.24L69.44 13.24L69.44 13.24Q68.32 14.22 66.91 14.22ZM67.62 5.11L67.62 5.11L67.62 5.11Q67.37 5.11 67.07 5.15L67.07 5.15L67.07 5.15Q67.03 5.96 66.36 8.88L66.36 8.88L66.36 8.88Q65.69 11.80 65.53 12.88L65.53 12.88L65.53 12.88Q65.79 13.01 66.14 13.01L66.14 13.01L66.14 13.01Q66.88 13.01 67.46 12.33L67.46 12.33L67.46 12.33Q68.04 11.66 68.35 10.65L68.35 10.65L68.35 10.65Q68.95 8.61 68.95 6.94L68.95 6.94L68.95 6.94Q68.95 5.94 68.65 5.52L68.65 5.52L68.65 5.52Q68.35 5.11 67.62 5.11Z"></path></g><!----><g data-v-423bf9ae="" id="0e929c1f-a1d7-46d9-9a5a-174c8e1cd3a7" transform="matrix(1.6325643759636128,0,0,1.6325643759636128,-30.455215348617855,-36.192214860336605)" stroke="none" fill="black"><path d="M79.827 22.436H20.173a1 1 0 0 0-1 1v53.128a1 1 0 0 0 1 1h59.654a1 1 0 0 0 1-1V23.436a1 1 0 0 0-1-1zM21.173 34.688h57.654v30.623H21.173zm57.654-10.252v8.252H21.173v-8.252zM21.173 75.564v-8.252h57.654v8.252z"></path><path d="M56.21 49.744l-11.163-6.708a1 1 0 0 0-1.515.84l-.114 6.512-.114 6.51a1 1 0 0 0 1.485.893l11.392-6.314a1 1 0 0 0 .03-1.733zm-10.876 5.458l.167-9.56 8.195 4.924zM27.32 68.34a1 1 0 0 0-1 1v4.04a1 1 0 0 0 2 0v-4.04a1 1 0 0 0-1-1zM34.828 68.34a1 1 0 0 0-1 1v4.04a1 1 0 0 0 2 0v-4.04a1 1 0 0 0-1-1zM42.336 68.34a1 1 0 0 0-1 1v4.04a1 1 0 0 0 2 0v-4.04a1 1 0 0 0-1-1zM49.845 68.34a1 1 0 0 0-1 1v4.04a1 1 0 0 0 2 0v-4.04a1 1 0 0 0-1-1zM57.353 68.34a1 1 0 0 0-1 1v4.04a1 1 0 0 0 2 0v-4.04a1 1 0 0 0-1-1zM64.861 68.34a1 1 0 0 0-1 1v4.04a1 1 0 1 0 2 0v-4.04a1 1 0 0 0-1-1zM72.37 68.34a1 1 0 0 0-1 1v4.04a1 1 0 0 0 2 0v-4.04a1 1 0 0 0-1-1zM27.32 31.299a1 1 0 0 0 1-1v-4.04a1 1 0 0 0-2 0v4.04a1 1 0 0 0 1 1zM34.828 31.299a1 1 0 0 0 1-1v-4.04a1 1 0 0 0-2 0v4.04a1 1 0 0 0 1 1zM42.336 31.299a1 1 0 0 0 1-1v-4.04a1 1 0 0 0-2 0v4.04a1 1 0 0 0 1 1zM49.845 31.299a1 1 0 0 0 1-1v-4.04a1 1 0 0 0-2 0v4.04a1 1 0 0 0 1 1zM57.353 31.299a1 1 0 0 0 1-1v-4.04a1 1 0 0 0-2 0v4.04a1 1 0 0 0 1 1zM64.861 31.299a1 1 0 0 0 1-1v-4.04a1 1 0 0 0-2 0v4.04a1 1 0 0 0 1 1zM72.37 31.299a1 1 0 0 0 1-1v-4.04a1 1 0 0 0-2 0v4.04a1 1 0 0 0 1 1z"></path></g><!----><g data-v-423bf9ae="" id="45c651e3-a100-447f-83e4-c02a869a4958" fill="black" transform="matrix(1.0186248814498373,0,0,1.0186248814498373,120.19573925624886,57.86088930781516)"><path d="M1.75 4.65C1.75 4.03 2.11 3.08 4.21 3.08C5.91 3.08 6.69 3.82 6.80 4.75L7.88 4.75C7.80 3.36 6.68 2.10 4.21 2.10C1.89 2.10 0.73 3.15 0.73 4.66C0.73 7.84 7.07 6.69 7.07 8.96C7.07 10.05 6.09 10.60 4.52 10.60C2.91 10.60 1.61 10.05 1.54 8.71L0.45 8.71C0.59 10.37 1.71 11.59 4.45 11.59C6.73 11.59 8.12 10.64 8.12 8.92C8.12 5.68 1.75 6.80 1.75 4.65ZM17.79 8.18L20.92 8.18C22.89 8.18 24.11 7.03 24.11 5.19C24.11 3.37 22.89 2.21 20.92 2.21L16.74 2.21L16.74 11.48L17.79 11.48ZM20.85 3.21C22.30 3.21 23.06 3.96 23.06 5.19C23.06 6.44 22.30 7.20 20.85 7.20L17.79 7.20L17.79 3.21ZM39.35 3.22L39.35 2.21L32.54 2.21L32.54 11.48L39.35 11.48L39.35 10.47L33.59 10.47L33.59 7.35L38.74 7.35L38.74 6.33L33.59 6.33L33.59 3.22ZM54.99 2.21L54.99 10.01L49.27 2.21L48.05 2.21L48.05 11.48L49.10 11.48L49.10 3.65L54.82 11.48L56.04 11.48L56.04 2.21ZM69.22 2.21L65.31 2.21L65.31 11.48L69.22 11.48C71.43 11.48 73.47 9.74 73.47 6.85C73.47 3.95 71.43 2.21 69.22 2.21ZM69.17 10.49L66.36 10.49L66.36 3.21L69.17 3.21C71.15 3.21 72.42 4.86 72.42 6.85C72.42 8.83 71.15 10.49 69.17 10.49ZM95.94 7.81L99.82 2.21L98.55 2.21L95.41 6.72L92.27 2.21L91 2.21L94.89 7.81L94.89 11.48L95.94 11.48ZM111.57 2.10C108.75 2.10 106.86 4.21 106.86 6.85C106.86 9.48 108.75 11.59 111.57 11.59C114.38 11.59 116.27 9.48 116.27 6.85C116.27 4.21 114.38 2.10 111.57 2.10ZM111.57 10.57C109.31 10.57 107.91 8.93 107.91 6.85C107.91 4.76 109.31 3.12 111.57 3.12C113.82 3.12 115.22 4.76 115.22 6.85C115.22 8.93 113.82 10.57 111.57 10.57ZM131.67 2.21L131.67 7.52C131.67 9.67 130.24 10.57 128.77 10.57C127.30 10.57 125.89 9.67 125.89 7.52L125.89 2.21L124.84 2.21L124.84 7.49C124.84 9.95 126.46 11.59 128.77 11.59C131.10 11.59 132.72 9.94 132.72 7.49L132.72 2.21ZM142.93 7.92L146.15 7.92L148.39 11.48L149.63 11.48L147.20 7.74C148.23 7.50 149.44 6.90 149.44 5.11C149.44 3.35 148.22 2.21 146.31 2.21L141.88 2.21L141.88 11.48L142.93 11.48ZM142.93 3.21L146.19 3.21C147.50 3.21 148.39 3.93 148.39 5.11C148.39 6.55 147.13 6.93 146.13 6.93L142.93 6.93ZM168.22 2.21L168.22 11.48L174.33 11.48L174.33 10.47L169.27 10.47L169.27 2.21ZM189.50 3.22L189.50 2.21L182.69 2.21L182.69 11.48L189.50 11.48L189.50 10.47L183.74 10.47L183.74 7.35L188.89 7.35L188.89 6.33L183.74 6.33L183.74 3.22ZM199.25 2.21L198.20 2.21L198.20 11.48L199.25 11.48ZM209.13 4.65C209.13 4.03 209.50 3.08 211.60 3.08C213.29 3.08 214.07 3.82 214.19 4.75L215.26 4.75C215.18 3.36 214.06 2.10 211.60 2.10C209.27 2.10 208.11 3.15 208.11 4.66C208.11 7.84 214.45 6.69 214.45 8.96C214.45 10.05 213.47 10.60 211.90 10.60C210.29 10.60 208.99 10.05 208.92 8.71L207.83 8.71C207.97 10.37 209.09 11.59 211.83 11.59C214.12 11.59 215.50 10.64 215.50 8.92C215.50 5.68 209.13 6.80 209.13 4.65ZM230.85 2.21L230.85 7.52C230.85 9.67 229.42 10.57 227.95 10.57C226.48 10.57 225.06 9.67 225.06 7.52L225.06 2.21L224.01 2.21L224.01 7.49C224.01 9.95 225.64 11.59 227.95 11.59C230.27 11.59 231.90 9.94 231.90 7.49L231.90 2.21ZM242.10 7.92L245.32 7.92L247.56 11.48L248.81 11.48L246.37 7.74C247.41 7.50 248.61 6.90 248.61 5.11C248.61 3.35 247.39 2.21 245.49 2.21L241.05 2.21L241.05 11.48L242.10 11.48ZM242.10 3.21L245.36 3.21C246.68 3.21 247.56 3.93 247.56 5.11C247.56 6.55 246.30 6.93 245.31 6.93L242.10 6.93ZM264.24 3.22L264.24 2.21L257.42 2.21L257.42 11.48L264.24 11.48L264.24 10.47L258.47 10.47L258.47 7.35L263.62 7.35L263.62 6.33L258.47 6.33L258.47 3.22ZM289.49 2.21L281.97 2.21L281.97 3.22L285.21 3.22L285.21 11.48L286.26 11.48L286.26 3.22L289.49 3.22ZM298.87 2.21L297.82 2.21L297.82 11.48L298.87 11.48ZM315.94 2.21L312.68 6.61L309.36 2.21L308.14 2.21L308.14 11.48L309.19 11.48L309.19 3.81L312.68 8.22L316.11 3.81L316.11 11.48L317.16 11.48L317.16 2.21ZM333.24 3.22L333.24 2.21L326.42 2.21L326.42 11.48L333.24 11.48L333.24 10.47L327.47 10.47L327.47 7.35L332.63 7.35L332.63 6.33L327.47 6.33L327.47 3.22Z"></path></g></svg>