<svg data-v-423bf9ae="" xmlns="http://www.w3.org/2000/svg" viewBox="0 0 67.1027444745598 60" class="icon"><!----><!----><!----><!----><g data-v-423bf9ae="" id="5b7f9960-b3d3-4072-81c6-d0217b63534f" transform="matrix(1.0883762506424086,0,0,1.0883762506424086,-20.867437928131302,-24.418810456207474)" stroke="none" fill="black"><path d="M79.827 22.436H20.173a1 1 0 0 0-1 1v53.128a1 1 0 0 0 1 1h59.654a1 1 0 0 0 1-1V23.436a1 1 0 0 0-1-1zM21.173 34.688h57.654v30.623H21.173zm57.654-10.252v8.252H21.173v-8.252zM21.173 75.564v-8.252h57.654v8.252z"></path><path d="M56.21 49.744l-11.163-6.708a1 1 0 0 0-1.515.84l-.114 6.512-.114 6.51a1 1 0 0 0 1.485.893l11.392-6.314a1 1 0 0 0 .03-1.733zm-10.876 5.458l.167-9.56 8.195 4.924zM27.32 68.34a1 1 0 0 0-1 1v4.04a1 1 0 0 0 2 0v-4.04a1 1 0 0 0-1-1zM34.828 68.34a1 1 0 0 0-1 1v4.04a1 1 0 0 0 2 0v-4.04a1 1 0 0 0-1-1zM42.336 68.34a1 1 0 0 0-1 1v4.04a1 1 0 0 0 2 0v-4.04a1 1 0 0 0-1-1zM49.845 68.34a1 1 0 0 0-1 1v4.04a1 1 0 0 0 2 0v-4.04a1 1 0 0 0-1-1zM57.353 68.34a1 1 0 0 0-1 1v4.04a1 1 0 0 0 2 0v-4.04a1 1 0 0 0-1-1zM64.861 68.34a1 1 0 0 0-1 1v4.04a1 1 0 1 0 2 0v-4.04a1 1 0 0 0-1-1zM72.37 68.34a1 1 0 0 0-1 1v4.04a1 1 0 0 0 2 0v-4.04a1 1 0 0 0-1-1zM27.32 31.299a1 1 0 0 0 1-1v-4.04a1 1 0 0 0-2 0v4.04a1 1 0 0 0 1 1zM34.828 31.299a1 1 0 0 0 1-1v-4.04a1 1 0 0 0-2 0v4.04a1 1 0 0 0 1 1zM42.336 31.299a1 1 0 0 0 1-1v-4.04a1 1 0 0 0-2 0v4.04a1 1 0 0 0 1 1zM49.845 31.299a1 1 0 0 0 1-1v-4.04a1 1 0 0 0-2 0v4.04a1 1 0 0 0 1 1zM57.353 31.299a1 1 0 0 0 1-1v-4.04a1 1 0 0 0-2 0v4.04a1 1 0 0 0 1 1zM64.861 31.299a1 1 0 0 0 1-1v-4.04a1 1 0 0 0-2 0v4.04a1 1 0 0 0 1 1zM72.37 31.299a1 1 0 0 0 1-1v-4.04a1 1 0 0 0-2 0v4.04a1 1 0 0 0 1 1z"></path></g><!----></svg>