<svg data-v-fde0c5aa="" xmlns="http://www.w3.org/2000/svg" viewBox="0 0 300 300" class="icon"><!----><defs data-v-fde0c5aa=""><linearGradient data-v-fde0c5aa="" gradientTransform="rotate(25)" id="4d306ded-6c81-4c20-8826-ae2c8e5eeba2" x1="0%" y1="0%" x2="100%" y2="0%"><stop data-v-fde0c5aa="" offset="0%" stop-color="#420F14" stop-opacity="1"></stop><stop data-v-fde0c5aa="" offset="100%" stop-color="#C5545E" stop-opacity="1"></stop></linearGradient></defs><rect data-v-fde0c5aa="" fill="url(#4d306ded-6c81-4c20-8826-ae2c8e5eeba2)" x="0" y="0" width="300px" height="300px" class="logo-background-square"></rect><!----><defs data-v-fde0c5aa=""><!----></defs><g data-v-fde0c5aa="" id="b3fd3d44-5f8f-48ae-9d7b-f3c3cdbe4c36" fill="#ffffff" stroke="none" transform="matrix(3.568300775419226,0,0,3.568300775419226,-28.415031964967696,-28.415031964967696)"><path d="M79.827 22.436H20.173a1 1 0 0 0-1 1v53.128a1 1 0 0 0 1 1h59.654a1 1 0 0 0 1-1V23.436a1 1 0 0 0-1-1zM21.173 34.688h57.654v30.623H21.173zm57.654-10.252v8.252H21.173v-8.252zM21.173 75.564v-8.252h57.654v8.252z"></path><path d="M56.21 49.744l-11.163-6.708a1 1 0 0 0-1.515.84l-.114 6.512-.114 6.51a1 1 0 0 0 1.485.893l11.392-6.314a1 1 0 0 0 .03-1.733zm-10.876 5.458l.167-9.56 8.195 4.924zM27.32 68.34a1 1 0 0 0-1 1v4.04a1 1 0 0 0 2 0v-4.04a1 1 0 0 0-1-1zM34.828 68.34a1 1 0 0 0-1 1v4.04a1 1 0 0 0 2 0v-4.04a1 1 0 0 0-1-1zM42.336 68.34a1 1 0 0 0-1 1v4.04a1 1 0 0 0 2 0v-4.04a1 1 0 0 0-1-1zM49.845 68.34a1 1 0 0 0-1 1v4.04a1 1 0 0 0 2 0v-4.04a1 1 0 0 0-1-1zM57.353 68.34a1 1 0 0 0-1 1v4.04a1 1 0 0 0 2 0v-4.04a1 1 0 0 0-1-1zM64.861 68.34a1 1 0 0 0-1 1v4.04a1 1 0 1 0 2 0v-4.04a1 1 0 0 0-1-1zM72.37 68.34a1 1 0 0 0-1 1v4.04a1 1 0 0 0 2 0v-4.04a1 1 0 0 0-1-1zM27.32 31.299a1 1 0 0 0 1-1v-4.04a1 1 0 0 0-2 0v4.04a1 1 0 0 0 1 1zM34.828 31.299a1 1 0 0 0 1-1v-4.04a1 1 0 0 0-2 0v4.04a1 1 0 0 0 1 1zM42.336 31.299a1 1 0 0 0 1-1v-4.04a1 1 0 0 0-2 0v4.04a1 1 0 0 0 1 1zM49.845 31.299a1 1 0 0 0 1-1v-4.04a1 1 0 0 0-2 0v4.04a1 1 0 0 0 1 1zM57.353 31.299a1 1 0 0 0 1-1v-4.04a1 1 0 0 0-2 0v4.04a1 1 0 0 0 1 1zM64.861 31.299a1 1 0 0 0 1-1v-4.04a1 1 0 0 0-2 0v4.04a1 1 0 0 0 1 1zM72.37 31.299a1 1 0 0 0 1-1v-4.04a1 1 0 0 0-2 0v4.04a1 1 0 0 0 1 1z"></path></g><!----></svg>